<svg width="10" height="13" viewBox="0 0 10 13" fill="none" xmlns="http://www.w3.org/2000/svg">
<path d="M8.57591 6.5753L8.57592 6.57529C8.68856 6.46265 8.84133 6.39937 9.00063 6.39937C9.15993 6.39937 9.3127 6.46265 9.42534 6.57529C9.53798 6.68793 9.60126 6.8407 9.60126 7C9.60126 7.1593 9.53798 7.31207 9.42534 7.42471L5.42543 11.4246L8.57591 6.5753ZM8.57591 6.5753L5.60063 9.55152V2C5.60063 1.84087 5.53742 1.68826 5.4249 1.57574C5.31237 1.46321 5.15976 1.4 5.00063 1.4C4.8415 1.4 4.68889 1.46321 4.57637 1.57574C4.46385 1.68826 4.40063 1.84087 4.40063 2V9.55152L1.42535 6.5753L1.42534 6.57529M8.57591 6.5753L1.42534 6.57529M1.42534 6.57529C1.3127 6.46265 1.15993 6.39937 1.00063 6.39937C0.841334 6.39937 0.688561 6.46265 0.575921 6.57529C0.463281 6.68793 0.4 6.8407 0.4 7C0.4 7.1593 0.463281 7.31207 0.575921 7.42471L4.57583 11.4246L1.42534 6.57529ZM5.23059 11.5551C5.30345 11.5248 5.36963 11.4805 5.42534 11.4247H4.57592C4.63164 11.4805 4.69782 11.5248 4.77067 11.5551C4.84357 11.5853 4.92171 11.6009 5.00063 11.6009C5.07955 11.6009 5.1577 11.5853 5.23059 11.5551Z" fill="#FF4747" stroke="#FF4747" stroke-width="0.2"/>
</svg>
