<svg width="16" height="18" viewBox="0 0 16 18" fill="none" xmlns="http://www.w3.org/2000/svg">
<path d="M9.14369 2.8125C9.14369 2.19023 8.63298 1.6875 8.00084 1.6875C7.36869 1.6875 6.85798 2.19023 6.85798 2.8125V7.875H1.71512C1.08298 7.875 0.572266 8.37773 0.572266 9C0.572266 9.62227 1.08298 10.125 1.71512 10.125H6.85798V15.1875C6.85798 15.8098 7.36869 16.3125 8.00084 16.3125C8.63298 16.3125 9.14369 15.8098 9.14369 15.1875V10.125H14.2866C14.9187 10.125 15.4294 9.62227 15.4294 9C15.4294 8.37773 14.9187 7.875 14.2866 7.875H9.14369V2.8125Z" fill="#5371FF"/>
</svg>
