<svg width="24" height="24" viewBox="0 0 24 24" fill="none" xmlns="http://www.w3.org/2000/svg">
<g clip-path="url(#clip0_726_5322)">
<circle cx="12.0003" cy="12.0003" r="2.33333" stroke="white" stroke-width="1.16667"/>
<path d="M4.29877 4.85927C3.21408 6.02838 2.42644 7.41579 1.96783 8.90222L3.83369 9.97948C5.38924 10.8776 5.38924 13.1228 3.83369 14.0209L1.96583 15.0993C2.19358 15.8344 2.5062 16.5557 2.90718 17.2502C3.30815 17.9447 3.77648 18.5761 4.29916 19.1408L6.16705 18.0624C7.72261 17.1643 9.66705 18.2869 9.66705 20.0831L9.66705 22.2377C11.1836 22.5837 12.779 22.5953 14.3338 22.2405L14.3338 20.0832C14.3338 18.287 16.2783 17.1644 17.8338 18.0625L19.7021 19.1411C20.7868 17.972 21.5745 16.5846 22.0331 15.0982L20.1671 14.0209C18.6116 13.1228 18.6116 10.8775 20.1671 9.97942L22.035 8.90098C21.8073 8.16596 21.4947 7.4447 21.0937 6.75019C20.6927 6.05567 20.2244 5.42429 19.7017 4.85953L17.8338 5.93795C16.2783 6.83605 14.3338 5.71342 14.3338 3.91722L14.3338 1.7627C12.8172 1.41666 11.2219 1.40506 9.66705 1.75988L9.66705 3.91719C9.66705 5.71339 7.72261 6.83602 6.16705 5.93792L4.29877 4.85927Z" stroke="white" stroke-width="1.16667" stroke-linejoin="round"/>
</g>
<defs>
<clipPath id="clip0_726_5322">
<rect width="28" height="28" fill="white" transform="translate(-2 -2)"/>
</clipPath>
</defs>
</svg>
