<svg width="10" height="11" viewBox="0 0 10 11" fill="none" xmlns="http://www.w3.org/2000/svg">
<path d="M8.57591 5.4247L8.57592 5.42471C8.68856 5.53735 8.84133 5.60063 9.00063 5.60063C9.15993 5.60063 9.3127 5.53735 9.42534 5.42471C9.53798 5.31207 9.60126 5.1593 9.60126 5C9.60126 4.8407 9.53798 4.68793 9.42534 4.57529L5.42543 0.575378L8.57591 5.4247ZM8.57591 5.4247L5.60063 2.44848V10C5.60063 10.1591 5.53742 10.3117 5.4249 10.4243C5.31237 10.5368 5.15976 10.6 5.00063 10.6C4.8415 10.6 4.68889 10.5368 4.57637 10.4243C4.46385 10.3117 4.40063 10.1591 4.40063 10V2.44848L1.42535 5.4247L1.42534 5.42471M8.57591 5.4247L1.42534 5.42471M1.42534 5.42471C1.3127 5.53735 1.15993 5.60063 1.00063 5.60063C0.841334 5.60063 0.688561 5.53735 0.575921 5.42471C0.463281 5.31207 0.4 5.1593 0.4 5C0.4 4.8407 0.463281 4.68793 0.575921 4.57529L4.57583 0.575378L1.42534 5.42471ZM5.23059 0.444924C5.30345 0.475156 5.36963 0.519455 5.42534 0.575289H4.57592C4.63164 0.519455 4.69782 0.475156 4.77067 0.444924C4.84357 0.414676 4.92171 0.399106 5.00063 0.399106C5.07955 0.399106 5.1577 0.414676 5.23059 0.444924Z" fill="#13B542" stroke="#13B542" stroke-width="0.2"/>
</svg>
