<svg width="24" height="24" viewBox="0 0 24 24" fill="none" xmlns="http://www.w3.org/2000/svg">
<path d="M9.83333 4.41699H4.41667C3.22005 4.41699 2.25 5.38704 2.25 6.58366V9.83366C2.8045 9.83366 3.359 10.0452 3.78206 10.4683C4.6282 11.3144 4.6282 12.6863 3.78206 13.5324C3.359 13.9555 2.8045 14.167 2.25 14.167V17.417C2.25 18.6136 3.22005 19.5837 4.41667 19.5837H9.83333M9.83333 4.41699H19.5833C20.7799 4.41699 21.75 5.38704 21.75 6.58366V9.83366C21.1955 9.83366 20.641 10.0452 20.2179 10.4683C19.3718 11.3144 19.3718 12.6863 20.2179 13.5324C20.641 13.9555 21.1955 14.167 21.75 14.167C21.75 14.9795 21.75 16.2023 21.75 17.417C21.75 18.6136 20.78 19.5837 19.5833 19.5837H9.83333M9.83333 4.41699V19.5837" stroke="white" stroke-width="1.08333" stroke-linejoin="round"/>
</svg>
