<svg width="36" height="34" viewBox="0 0 36 34" fill="none" xmlns="http://www.w3.org/2000/svg">
<rect width="36" height="34" rx="17" fill="black"/>
<g clip-path="url(#clip0_899_5078)">
<path d="M18 22C18.3905 21.6095 18.3905 20.9764 18 20.586L15.1211 17.7071C14.7306 17.3166 14.7306 16.6834 15.1211 16.2929L18 13.414C18.3905 13.0235 18.3905 12.3904 18 12C17.6096 11.6095 16.9765 11.6095 16.586 12L12.2931 16.2929C11.9026 16.6834 11.9026 17.3166 12.2931 17.7071L16.586 22C16.9765 22.3904 17.6096 22.3904 18 22Z" fill="white" fill-opacity="0.5"/>
<path d="M24 22C24.3905 21.6095 24.3905 20.9764 24 20.586L21.1211 17.7071C20.7306 17.3166 20.7306 16.6834 21.1211 16.2929L24 13.414C24.3905 13.0235 24.3905 12.3904 24 12C23.6096 11.6095 22.9765 11.6095 22.586 12L18.2931 16.2929C17.9026 16.6834 17.9026 17.3166 18.2931 17.7071L22.586 22C22.9765 22.3904 23.6096 22.3904 24 22Z" fill="white" fill-opacity="0.5"/>
</g>
<defs>
<clipPath id="clip0_899_5078">
<rect width="24" height="20" fill="white" transform="translate(28 5) rotate(90)"/>
</clipPath>
</defs>
</svg>
