<svg width="36" height="34" viewBox="0 0 36 34" fill="none" xmlns="http://www.w3.org/2000/svg">
<rect width="36" height="34" rx="17" fill="black"/>
<g clip-path="url(#clip0_899_5084)">
<path d="M18 22C17.6095 21.6095 17.6095 20.9764 18 20.586L20.8789 17.7071C21.2694 17.3166 21.2694 16.6834 20.8789 16.2929L18 13.414C17.6095 13.0235 17.6095 12.3904 18 12C18.3904 11.6095 19.0235 11.6095 19.414 12L23.7069 16.2929C24.0974 16.6834 24.0974 17.3166 23.7069 17.7071L19.414 22C19.0235 22.3904 18.3904 22.3904 18 22Z" fill="white" fill-opacity="0.5"/>
<path d="M12 22C11.6095 21.6095 11.6095 20.9764 12 20.586L14.8789 17.7071C15.2694 17.3166 15.2694 16.6834 14.8789 16.2929L12 13.414C11.6095 13.0235 11.6095 12.3904 12 12C12.3904 11.6095 13.0235 11.6095 13.414 12L17.7069 16.2929C18.0974 16.6834 18.0974 17.3166 17.7069 17.7071L13.414 22C13.0235 22.3904 12.3904 22.3904 12 22Z" fill="white" fill-opacity="0.5"/>
</g>
<defs>
<clipPath id="clip0_899_5084">
<rect width="24" height="20" fill="white" transform="matrix(4.37114e-08 1 1 -4.37114e-08 8 5)"/>
</clipPath>
</defs>
</svg>
