<svg width="17" height="17" viewBox="0 0 17 17" fill="none" xmlns="http://www.w3.org/2000/svg">
<path d="M8.99534 0.500008C7.49861 0.497956 6.03132 0.915829 4.76024 1.70613C3.48916 2.49643 2.46528 3.62747 1.80497 4.97067C1.14467 6.31388 0.874415 7.81539 1.02494 9.30454C1.17546 10.7937 1.74072 12.2107 2.65647 13.3946C3.57221 14.5785 4.80172 15.4818 6.20524 16.0018C7.60876 16.5217 9.12999 16.6375 10.596 16.336C12.0621 16.0344 13.4141 15.3277 14.4985 14.296C15.5829 13.2644 16.3562 11.9492 16.7303 10.5H14.6493C14.2826 11.5372 13.6378 12.4536 12.7854 13.1491C11.933 13.8445 10.9058 14.2922 9.8161 14.4432C8.7264 14.5942 7.61615 14.4427 6.60675 14.0053C5.59734 13.5679 4.72762 12.8613 4.09269 11.9629C3.45775 11.0646 3.08203 10.0089 3.00661 8.91136C2.93118 7.81384 3.15896 6.7167 3.66503 5.7399C4.1711 4.7631 4.93599 3.94424 5.87607 3.37283C6.81615 2.80143 7.89523 2.49948 8.99534 2.50001C9.78222 2.50116 10.561 2.65917 11.2861 2.9648C12.0112 3.27043 12.6681 3.71754 13.2183 4.28001L10.0003 7.50001H17.0003V0.500008L14.6493 2.85001C13.9085 2.10469 13.0276 1.51333 12.0572 1.11001C11.0868 0.706684 10.0462 0.499369 8.99534 0.500008Z" fill="#13B542"/>
</svg>
